<svg width="658" height="462" viewBox="0 0 658 462" xmlns="http://www.w3.org/2000/svg" xmlns:xlink="http://www.w3.org/1999/xlink"><title>2FB6814C-A94E-4670-9F59-864699029C9C</title><defs><path id="a" d="M0 461.782h657.849V.809H0z"/><path id="c" d="M.748 461.782h315.283V.81H.748v460.972z"/></defs><g fill="none" fill-rule="evenodd"><path d="M0 390.12h218.91V213.734H0V390.12zm4.293-4.28h210.332V218.01H4.293v167.83z" fill="#0454bf"/><path d="M10.633 386.03v75.002h208.243l.37-75.001H10.633zm3.912 3.9h200.77l-.333 67.202H14.545v-67.201zM21.55 368.194h93.158v-92.88H21.55v92.88zm4.293-4.28h84.576V279.59H25.843v84.324z" fill="#0454bf"/><path fill="#0454bf" d="M183.738 459.084h4.297V215.872h-4.297zM169.616 459.084h2.315v-71.102h-2.315zM157.449 459.084h2.315v-71.102h-2.315zM145.279 459.084h2.311v-71.102h-2.311zM133.112 459.084h2.315v-71.102h-2.315zM120.945 459.084h2.315v-71.105h-2.315zM108.775 459.084h2.315v-71.102h-2.315zM96.608 459.084h2.315v-71.102h-2.315zM84.438 459.084h2.311v-71.102h-2.311zM72.271 459.084h2.315v-71.102h-2.315zM60.104 459.084h2.315v-71.102h-2.315zM47.934 459.084h2.319v-71.102h-2.32zM35.767 459.084h2.319v-71.102h-2.319zM23.597 459.084h2.319v-71.102h-2.32zM11.43 459.084h2.319v-71.102H11.43z"/><path fill="#0454bf" d="M170.44 388.865h.667V216.321h-.668zM158.273 388.865h.667V216.321h-.667zM146.102 388.869h.672V216.317h-.672zM133.936 388.865h.67V216.321h-.67zM121.765 388.865h.668V216.321h-.668zM109.599 388.865h.667V216.321h-.667zM97.432 388.865h.667V216.321h-.667zM85.261 388.865h.668V216.321h-.668zM73.095 388.865h.671V216.321h-.671zM60.924 388.865h.668V216.321h-.668zM48.758 388.865h.667V216.321h-.667zM36.59 388.865h.669V216.321h-.668zM24.42 388.865h.668V216.321h-.667zM12.257 388.865h.668V216.321h-.668z"/><path fill="#0454bf" d="M2.145 377.922h184.184v-.699H2.145zM2.145 365.484h184.184v-.698H2.145zM2.145 353.043h184.184v-.695H2.145zM2.145 340.605h184.184v-.694H2.145zM2.145 328.168h184.184v-.695H2.145zM2.145 315.727h184.184v-.695H2.145zM2.145 303.29h184.184v-.695H2.145zM2.145 290.852h184.184v-.699H2.145zM2.145 278.414h184.184v-.698H2.145zM2.145 265.977h184.184v-.699H2.145zM2.145 253.536h184.184v-.695H2.145zM2.145 241.098h184.184v-.695H2.145zM2.145 228.657h184.184v-.695H2.145zM2.145 216.22h184.184v-.695H2.145z"/><path d="M157.075 368.194h15.843V230.57h-15.843v137.623zm4.293-4.28h7.26V234.847h-7.26v129.067zM214.974 346.293v114.575h128.16V326.42l-128.16 19.872zm3.578 3.057l121-18.762v126.713h-121V349.35z" fill="#0454bf"/><path fill="#0454bf" d="M342.679 459.084h.54V327.187h-.54zM324.652 459.084h.54V330.132h-.54zM306.625 459.084h.54v-126h-.54zM288.598 459.084h.544V336.029h-.544zM270.575 459.084h.54V338.977h-.54zM252.544 459.084h.544V341.926h-.544zM234.52 459.084h.541v-114.21h-.54z"/><path fill="#97D4CB" d="M216.494 459.084h.54V347.819h-.54z"/><path fill="#0454bf" d="M217.049 348.108h124.294v-.578H217.05zM217.049 400.044h124.294v-.58H217.05zM217.049 429.708h124.294v-.575H217.05z"/><path d="M338.985 356.722h54.37v-29.835h-54.37v29.835zm3.581-3.57h47.208v-22.694h-47.208v22.693z" fill="#0454bf"/><path d="M389.774 356.722h217.492v-29.835H389.774v29.835zm3.582-3.57h210.329v-22.694h-210.33v22.693zM338.985 461.034h15.853v-95.138h-15.853v95.138zm3.581-3.575h8.687v-87.996h-8.687v87.996zM360.76 461.034h15.853v-95.138H360.76v95.138zm3.585-3.575h8.687v-87.996h-8.687v87.996z" fill="#0454bf"/><path fill="#0454bf" d="M354.783 368.106l-3.476-.85 3.469-14.106h6.47l3.055 14.156-3.498.75-2.45-11.335h-.769zM376.547 368.158l-3.451-.955 3.556-12.745 3.45.955zM389.778 461.034h15.853v-95.138h-15.853v95.138zm3.578-3.575h8.69v-87.996h-8.69v87.996zM411.553 461.034h15.857v-95.138h-15.857v95.138zm3.578-3.575h8.69v-87.996h-8.69v87.996z"/><path fill="#0454bf" d="M405.574 368.106l-3.476-.85 3.472-14.106h6.466l3.056 14.156-3.498.75-2.45-11.335h-.769zM427.337 368.158l-3.45-.955 3.556-12.745 3.45.955zM340.774 378.316h50.793v-.575h-50.793zM389.778 367.68h3.578v-12.745h-3.578zM591.206 461.034h15.853v-95.138h-15.853v95.138zm3.581-3.575h8.687v-87.996h-8.687v87.996zM569.43 461.034h15.858v-95.138H569.43v95.138zm3.578-3.575h8.69v-87.996h-8.69v87.996z"/><path fill="#0454bf" d="M591.259 368.106l-2.802-11.385h-.769l-2.45 11.334-3.497-.749 3.055-14.156h6.47l3.469 14.106zM569.495 368.158l-3.556-12.745 3.45-.955 3.557 12.745zM603.474 367.68h3.582v-12.745h-3.582zM338.985 330.458h25.357v-21.323h-25.357v21.323zm3.581-3.57h18.194v-14.186h-18.194v14.185z"/><path d="M348.895 328.96h6.128v-18.334h-6.128v18.334zm.58-.579h4.968v-17.173h-4.968v17.173z" fill="#0454bf"/><g fill="#0454bf"><path d="M361.35 310.917h-3.582v-5.676c-1.288-1.143-3.998-3.744-5.81-6.866-1.81 3.122-4.52 5.723-5.809 6.866v5.676h-3.58v-7.333l.652-.535c1.934-1.595 6.949-6.577 6.949-10.412h3.581c0 3.835 5.015 8.817 6.95 10.412l.649.535v7.333z"/><path d="M351.664 295.962c-3.647 0-6.615-2.96-6.615-6.595 0-3.636 2.968-6.595 6.615-6.595 3.647 0 6.615 2.96 6.615 6.595 0 3.636-2.968 6.595-6.615 6.595m0-9.62a3.032 3.032 0 0 0-3.034 3.025 3.032 3.032 0 0 0 3.034 3.024 3.032 3.032 0 0 0 3.033-3.024 3.032 3.032 0 0 0-3.033-3.024"/></g><path fill="#0454bf" d="M437.585 312.601h-3.581v-26.76l-70.82 26.746-1.266-3.34 75.667-28.572z"/><path d="M376.622 312.92l49.28-17.568v16.554l-.265.022c-2.92.239-45.448.933-47.255.962l-1.76.03zm48.7-16.743l-45.187 16.105c8.052-.134 41.09-.69 45.187-.911v-15.194zM603.474 356.722h54.371v-29.835h-54.37v29.835zm3.582-3.57h47.208v-22.694h-47.208v22.693zM641.996 461.034h15.853v-95.138h-15.853v95.138zm3.581-3.575h8.69v-87.996h-8.69v87.996zM620.22 461.034h15.85v-95.138h-15.85v95.138zm3.582-3.575h8.69v-87.996h-8.69v87.996z" fill="#0454bf"/><path fill="#0454bf" d="M642.05 368.106l-2.802-11.385h-.77l-2.449 11.334-3.498-.749 3.056-14.156h6.47l3.468 14.106zM620.286 368.158l-3.556-12.745 3.45-.955 3.557 12.745zM605.267 378.316h50.79v-.575h-50.79zM632.492 330.458h25.357v-21.323h-25.357v21.323zm3.578-3.57h18.198v-14.186H636.07v14.185z"/><path d="M641.807 328.96h6.129v-18.334h-6.13v18.334zm.58-.579h4.968v-17.173h-4.968v17.173z" fill="#0454bf"/><g fill="#0454bf"><path d="M654.262 310.917h-3.581v-5.676c-1.288-1.143-3.999-3.744-5.81-6.866-1.81 3.122-4.52 5.723-5.809 6.866v5.676h-3.578v-7.333l.65-.535c1.934-1.595 6.949-6.577 6.949-10.412h3.581c0 3.835 5.015 8.817 6.949 10.412l.65.535v7.333z"/><path d="M645.169 295.962c-3.647 0-6.615-2.96-6.615-6.595 0-3.636 2.968-6.595 6.615-6.595 3.647 0 6.615 2.96 6.615 6.595 0 3.636-2.968 6.595-6.615 6.595m0-9.62a3.032 3.032 0 0 0-3.034 3.025 3.032 3.032 0 0 0 3.034 3.024 3.032 3.032 0 0 0 3.033-3.024 3.032 3.032 0 0 0-3.033-3.024"/></g><path fill="#0454bf" d="M562.828 312.601h-3.581v-31.926l75.667 28.572-1.266 3.34-70.82-26.746z"/><path d="M620.21 312.92l-1.759-.03c-1.807-.029-44.334-.723-47.255-.962l-.265-.022v-16.554l.388.14 48.892 17.427zm-48.699-1.55c4.097.221 37.135.778 45.187.912l-45.187-16.105v15.194zM654.268 367.68h3.577v-12.745h-3.577zM434.42 380.957h17.211V367.39h-17.21v13.566zm.578-.575h16.05v-12.409h-16.05v12.409zM434.42 459.54h18.046v-65.87h-18.045v65.87zm.578-.583h16.884v-64.709h-16.884v64.71zM489.906 380.957h17.21V367.39h-17.21v13.566zm.58-.575h16.05v-12.409h-16.05v12.409zM489.91 459.54h18.045v-65.87H489.91v65.87zm.577-.583h16.883v-64.709h-16.883v64.71zM459.335 461.034h23.125v-95.138h-23.125v95.138zm3.578-3.575h15.966v-87.996h-15.966v87.996z" fill="#0454bf"/><g transform="translate(0 -.748)"><path d="M462.91 368.557l-3.571-.256 1.785.13-1.785-.12c.014-.246.304-6.048-5.03-11.366l2.533-2.522c6.535 6.516 6.089 13.827 6.067 14.134zM478.894 368.557c-.022-.307-.468-7.618 6.067-14.134l2.533 2.522c-5.392 5.376-5.033 11.298-5.03 11.356l-3.57.256z" fill="#0454bf"/><mask id="b" fill="#fff"><use xlink:href="#a"/></mask><path d="M514.824 461.782h23.125v-95.137h-23.125v95.137zm3.577-3.57h15.966v-88h-15.966v88z" fill="#0454bf" mask="url(#b)"/><path d="M518.397 368.557l-3.57-.256 1.785.13-1.785-.12c.014-.246.304-6.048-5.03-11.366l2.533-2.522c6.535 6.516 6.089 13.827 6.067 14.134M534.381 368.557c-.021-.307-.468-7.618 6.068-14.134l2.532 2.522c-5.392 5.376-5.033 11.298-5.029 11.356l-3.57.256zM544.963 381.705h17.21V368.14h-17.21v13.566zm.58-.575h16.05V368.72h-16.05v12.409zM544.963 460.288h18.045v-65.87h-18.045v65.87zm.58-.583h16.88v-64.709h-16.88v64.71zM576.752 329.42h-3.582v-9.58l-74.252-30.302-75.809 30.309v9.572h-3.581v-11.985l79.408-31.745 77.816 31.756z" fill="#0454bf" mask="url(#b)"/><path d="M550.964 320.832h-104.66l52.622-20.299.105.04 51.933 20.259zm-101.55-.58h98.469l-48.957-19.1-49.513 19.1z" fill="#0454bf" mask="url(#b)"/><path d="M562.828 315.454l-64.31-25.917-64.513 25.914v-42.128h128.823v42.131zM437.583 276.89v33.275l60.94-24.477 60.724 24.473V276.89H437.583zM542.43 218.82l-43.57-17.56-43.706 17.557v-29.622h87.275v29.625zm-83.695-26.054v20.765l40.13-16.116 39.983 16.113v-20.762h-80.113z" fill="#0454bf" mask="url(#b)"/><path d="M556.13 231.5H441.452v-10.784l57.916-23.157 56.762 23.164V231.5zm-111.097-3.57H552.55v-4.812l-53.196-21.706-54.32 21.717v4.8z" fill="#0454bf" mask="url(#b)"/><path d="M537.05 223.585h-76.534l38.481-14.843.105.04 37.948 14.803zm-73.421-.579h70.34l-34.972-13.642-35.368 13.642zM451.722 276.89h94.14v-48.96h-94.14v48.96zm3.582-3.57h86.977V231.5h-86.977v41.82z" fill="#0454bf" mask="url(#b)"/><path d="M498.791 265.256c-7.721 0-14.002-6.262-14.002-13.96 0-7.702 6.28-13.965 14.002-13.965s14.003 6.263 14.003 13.965c0 7.698-6.281 13.96-14.003 13.96m0-24.94c-6.07 0-11.009 4.927-11.009 10.98 0 6.052 4.939 10.976 11.01 10.976 6.07 0 11.009-4.924 11.009-10.976 0-6.053-4.939-10.98-11.01-10.98" fill="#0454bf" mask="url(#b)"/><path d="M482.043 267.991h33.495v-33.394h-33.495v33.394zm3.581-3.57h26.333v-26.254h-26.333v26.254z" fill="#0454bf" mask="url(#b)"/></g><path d="M512.043 181.41H485.54v-38.882c0-7.286 5.944-13.212 13.252-13.212 7.308 0 13.251 5.926 13.251 13.212v38.883zm-22.922-3.57h19.341v-35.312c0-5.318-4.34-9.645-9.67-9.645-5.334 0-9.67 4.327-9.67 9.645v35.312z" fill="#0454bf"/><g transform="translate(340.025 -.748)"><mask id="d" fill="#fff"><use xlink:href="#c"/></mask><path d="M119.701 125.842h78.128v-15.595h-78.128v15.595zm3.582-3.57h70.965v-8.455h-70.965v8.455z" fill="#0454bf" mask="url(#d)"/><path d="M123.432 192.77h70.67v-70.498h-70.67v70.497zm3.577-3.572h63.508v-63.356H127.01v63.356zM194.098 112.136l-3.574-.21c.014-.228 1.226-23.03-8.527-33.336-3.146-3.325-6.996-4.942-11.768-4.942h-22.926c-4.775 0-8.628 1.62-11.774 4.949-9.761 10.321-8.535 33.098-8.52 33.33l-3.575.21c-.058-1-1.32-24.558 9.493-35.99 3.803-4.026 8.643-6.066 14.376-6.066h22.926c5.733 0 10.57 2.04 14.377 6.067 10.813 11.431 9.55 34.99 9.492 35.988" fill="#0454bf" mask="url(#d)"/><path d="M164.526 73.65h-17.664l1.662-2.714c.043-.08 5.766-10.636 5.766-58.24h3.581c0 47.441 7.954 57.933 8.037 58.034l2.32 2.898-3.702.021zm-11.833-3.571h8.803c-1.455-3.206-3.556-9.457-5.116-20.827-1.132 11.508-2.656 17.72-3.687 20.827z" fill="#0454bf" mask="url(#d)"/><path d="M156.082 14.48c-3.78 0-6.858-3.067-6.858-6.837 0-3.77 3.077-6.833 6.858-6.833 3.781 0 6.858 3.064 6.858 6.833 0 3.77-3.077 6.838-6.858 6.838m0-10.1a3.272 3.272 0 0 0-3.276 3.262 3.275 3.275 0 0 0 3.276 3.267 3.275 3.275 0 0 0 3.277-3.267 3.272 3.272 0 0 0-3.277-3.263M.748 461.782h315.283v-3.567H.748z" fill="#0454bf" mask="url(#d)"/></g></g></svg>